<?xml version="1.0" encoding="UTF-8"?>
<!-- Generator: Adobe Illustrator 19.2.1, SVG Export Plug-In . SVG Version: 6.00 Build 0)  -->
<svg version="1.1" id="Layer_1" xmlns="http://www.w3.org/2000/svg" xmlns:xlink="http://www.w3.org/1999/xlink" x="0px" y="0px" viewBox="0 0 244.717 72.486" enable-background="new 0 0 244.717 72.486" xml:space="preserve">
<path fill-rule="evenodd" clip-rule="evenodd" fill="#010101" d="M9.906,0h224.905c5.448,0,9.906,4.457,9.906,9.906V62.58  c0,5.448-4.458,9.906-9.906,9.906H9.906C4.457,72.486,0,68.028,0,62.58V9.906C0,4.457,4.457,0,9.906,0z"/>
<path fill-rule="evenodd" clip-rule="evenodd" fill="#FFFFFF" d="M88.399,39.739H76.942v3.4h8.126  c-0.401,4.768-4.368,6.801-8.112,6.801c-4.79,0-8.97-3.769-8.97-9.051c0-5.146,3.985-9.109,8.98-9.109  c3.855,0,6.126,2.457,6.126,2.457l2.381-2.465c0,0-3.055-3.401-8.628-3.401c-7.096,0-12.586,5.989-12.586,12.458  c0,6.339,5.164,12.52,12.766,12.52c6.687,0,11.581-4.581,11.581-11.354C88.606,40.564,88.399,39.738,88.399,39.739L88.399,39.739z"/>
<path fill-rule="evenodd" clip-rule="evenodd" fill="#FFFFFF" d="M98.185,40.43c2.312,0,4.503,1.869,4.503,4.881  c0,2.948-2.182,4.87-4.513,4.87c-2.562,0-4.583-2.052-4.583-4.894C93.591,42.507,95.587,40.43,98.185,40.43L98.185,40.43  L98.185,40.43z M98.138,37.277c-4.701,0-8.071,3.675-8.071,7.962c0,4.35,3.268,8.094,8.125,8.094c4.398,0,8-3.361,8-8  C106.193,40.015,102.003,37.277,98.138,37.277L98.138,37.277z"/>
<path fill-rule="evenodd" clip-rule="evenodd" fill="#FFFFFF" d="M115.927,40.43c2.312,0,4.503,1.869,4.503,4.881  c0,2.948-2.182,4.87-4.514,4.87c-2.562,0-4.583-2.052-4.583-4.894C111.334,42.507,113.33,40.43,115.927,40.43L115.927,40.43  L115.927,40.43z M115.881,37.277c-4.701,0-8.07,3.675-8.07,7.962c0,4.35,3.268,8.094,8.126,8.094c4.397,0,8-3.361,8-8  C123.936,40.015,119.746,37.277,115.881,37.277L115.881,37.277z"/>
<path fill-rule="evenodd" clip-rule="evenodd" fill="#FFFFFF" d="M133.572,40.432c2.116,0,4.288,1.807,4.288,4.892  c0,3.136-2.168,4.864-4.335,4.864c-2.3,0-4.441-1.868-4.441-4.834C129.084,42.271,131.307,40.432,133.572,40.432L133.572,40.432  L133.572,40.432z M133.259,37.285c-4.315,0-7.707,3.779-7.707,8.021c0,4.832,3.932,8.036,7.633,8.036  c2.288,0,3.505-0.908,4.403-1.951v1.583c0,2.77-1.682,4.428-4.22,4.428c-2.452,0-3.682-1.823-4.109-2.858l-3.085,1.29  c1.095,2.314,3.298,4.728,7.22,4.728c4.291,0,7.56-2.702,7.56-8.37V37.768h-3.366v1.36  C136.553,38.012,135.138,37.285,133.259,37.285L133.259,37.285z"/>
<path fill-rule="evenodd" clip-rule="evenodd" fill="#FFFFFF" d="M156.767,40.353c1.467,0,2.522,0.78,2.971,1.715l-7.189,3.005  C152.239,42.747,154.443,40.353,156.767,40.353L156.767,40.353L156.767,40.353z M156.627,37.266c-4.07,0-7.488,3.238-7.488,8.017  c0,5.056,3.809,8.055,7.879,8.055c3.397,0,5.481-1.858,6.725-3.523l-2.775-1.847c-0.72,1.118-1.924,2.21-3.933,2.21  c-2.257,0-3.295-1.236-3.938-2.433l10.765-4.467l-0.559-1.309C162.263,39.407,159.838,37.267,156.627,37.266L156.627,37.266z"/>
<rect x="143.653" y="29.2" fill-rule="evenodd" clip-rule="evenodd" fill="#FFFFFF" width="3.536" height="23.663"/>
<g>
	<linearGradient id="SVGID_1_" gradientUnits="userSpaceOnUse" x1="50.3192" y1="46.8152" x2="44.2263" y2="34.8572">
		<stop offset="0" style="stop-color:#FACD8A"/>
		<stop offset="1" style="stop-color:#F6916D"/>
	</linearGradient>
	<path fill-rule="evenodd" clip-rule="evenodd" fill="url(#SVGID_1_)" d="M45.707,46.937c4.368-2.391,7.704-4.217,8.007-4.383   c0.905-0.496,1.853-1.76,0-2.771c-0.596-0.325-3.842-2.096-8.013-4.371l-5.736,5.78L45.707,46.937z"/>
	<linearGradient id="SVGID_2_" gradientUnits="userSpaceOnUse" x1="45.6135" y1="40.933" x2="21.8138" y2="65.5783">
		<stop offset="0" style="stop-color:#E62F39"/>
		<stop offset="1" style="stop-color:#79469B"/>
	</linearGradient>
	<path fill-rule="evenodd" clip-rule="evenodd" fill="url(#SVGID_2_)" d="M39.966,41.192L21.62,59.678   c0.414,0.052,0.913-0.057,1.486-0.371c1.187-0.65,13.93-7.625,22.602-12.371L39.966,41.192z"/>
	<linearGradient id="SVGID_3_" gradientUnits="userSpaceOnUse" x1="44.9804" y1="41.3376" x2="22.4508" y2="17.1775">
		<stop offset="0" style="stop-color:#E5EBA6"/>
		<stop offset="1" style="stop-color:#3BBCBA"/>
	</linearGradient>
	<path fill-rule="evenodd" clip-rule="evenodd" fill="url(#SVGID_3_)" d="M39.966,41.192l5.736-5.78c0,0-21.32-11.632-22.596-12.328   c-0.491-0.268-1.118-0.318-1.592-0.212L39.966,41.192z"/>
	<linearGradient id="SVGID_4_" gradientUnits="userSpaceOnUse" x1="30.0556" y1="75.4883" x2="30.0556" y2="7.0935">
		<stop offset="0" style="stop-color:#8DD1CD"/>
		<stop offset="1" style="stop-color:#06708D"/>
	</linearGradient>
	<path fill-rule="evenodd" clip-rule="evenodd" fill="url(#SVGID_4_)" d="M39.966,41.192l-18.452-18.32   c-0.758,0.173-1.376,0.832-1.369,2.151c0.011,2.143,0.155,30.702,0.164,32.501c0.006,1.242,0.5,2.114,1.404,2.196L39.966,41.192z"/>
</g>
<rect x="191.059" y="29.2" fill-rule="evenodd" clip-rule="evenodd" fill="#FFFFFF" width="3.536" height="23.663"/>
<rect x="172.309" y="29.2" fill-rule="evenodd" clip-rule="evenodd" fill="#FFFFFF" width="3.536" height="23.663"/>
<path fill-rule="evenodd" clip-rule="evenodd" fill="#FFFFFF" d="M172.309,29.2h8.553c4.146,0,7.538,3.392,7.538,7.538l0,0  c0,4.146-3.392,7.538-7.538,7.538h-8.553V29.2L172.309,29.2z M175.845,32.735v8.004h5.017c2.194,0,4.002-1.808,4.002-4.002  c0-2.194-1.808-4.002-4.002-4.002H175.845z"/>
<polygon fill-rule="evenodd" clip-rule="evenodd" fill="#FFFFFF" points="220.701,60.563 230.939,37.267 227.076,37.267   216.839,60.563 "/>
<polygon fill-rule="evenodd" clip-rule="evenodd" fill="#FFFFFF" points="221.843,55.231 213.949,37.267 217.811,37.267   223.256,49.657 221.843,49.657 "/>
<path fill-rule="evenodd" clip-rule="evenodd" fill="#FFFFFF" d="M209.066,52.862h3.536v-8.51  c0.553-8.777-10.575-10.842-14.785-4.514l2.845,1.909c2.059-3.6,7.934-2.771,8.32,1.086c-1.766-0.468-3.673-0.807-5.416-0.63  c-2.72,0.275-5.049,2.003-5.419,4.832c-0.2,1.529,0.141,3.414,1.209,4.562c1.663,1.79,4.395,2.031,6.638,1.419  c1.263-0.344,2.258-1.095,3.073-2.064V52.862L209.066,52.862z M209.066,46.022c-0.452,1.968-1.978,3.383-3.913,3.91  c-4.089,1.114-5.105-5.529,0.97-4.615C207.167,45.443,208.077,45.701,209.066,46.022z"/>
<path fill-rule="evenodd" clip-rule="evenodd" fill="#FFFFFF" d="M75.96,14.803h-5.214v1.547h3.698  c-0.183,2.17-1.988,3.095-3.692,3.095c-2.18,0-4.082-1.715-4.082-4.119c0-2.342,1.813-4.145,4.087-4.145  c1.754,0,2.788,1.118,2.788,1.118l1.083-1.122c0,0-1.391-1.548-3.927-1.548c-3.229,0-5.727,2.726-5.727,5.67  c0,2.885,2.35,5.698,5.81,5.698c3.043,0,5.27-2.085,5.27-5.167C76.054,15.178,75.96,14.802,75.96,14.803L75.96,14.803z"/>
<rect x="97.271" y="10.006" fill-rule="evenodd" clip-rule="evenodd" fill="#FFFFFF" width="1.609" height="10.768"/>
<path fill-rule="evenodd" clip-rule="evenodd" fill="#FFFFFF" d="M88.259,20.775h1.609v-9.159h2.641v-1.609  c-2.297,0-4.594,0-6.892,0v1.609h2.641V20.775z"/>
<path fill-rule="evenodd" clip-rule="evenodd" fill="#FFFFFF" d="M77.75,20.775h6.171v-1.609H79.36v-2.971h4.013v-1.609H79.36  v-2.971h4.562v-1.609H77.75C77.75,13.596,77.75,17.185,77.75,20.775z"/>
<path fill-rule="evenodd" clip-rule="evenodd" fill="#FFFFFF" d="M102.831,20.775h1.609v-9.159h2.641v-1.609  c-2.297,0-4.594,0-6.892,0v1.609h2.641V20.775z"/>
<path fill-rule="evenodd" clip-rule="evenodd" fill="#FFFFFF" d="M116.949,19.444c-2.159-0.026-4.032-1.733-4.032-4.118  c0-2.323,1.784-4.116,4.032-4.145c2.248,0.029,4.032,1.822,4.032,4.145C120.981,17.711,119.108,19.418,116.949,19.444  L116.949,19.444z M116.949,9.628c-3.229,0-5.728,2.725-5.728,5.67c0,2.862,2.313,5.652,5.728,5.696  c3.415-0.044,5.728-2.835,5.728-5.696C122.676,12.354,120.178,9.628,116.949,9.628z"/>
<polygon fill-rule="evenodd" clip-rule="evenodd" fill="#FFFFFF" points="124.284,20.775 125.893,20.775 125.893,12.931   131.061,20.775 132.667,20.775 132.667,10.006 131.058,10.006 131.058,17.846 125.893,10.006 124.284,10.006 "/>
<g>
	<linearGradient id="SVGID_5_" gradientUnits="userSpaceOnUse" x1="50.3192" y1="46.8152" x2="44.2263" y2="34.8572">
		<stop offset="0" style="stop-color:#FACD8A"/>
		<stop offset="1" style="stop-color:#F6916D"/>
	</linearGradient>
	<path fill-rule="evenodd" clip-rule="evenodd" fill="url(#SVGID_5_)" d="M45.707,46.937c4.368-2.391,7.704-4.217,8.007-4.383   c0.905-0.496,1.853-1.76,0-2.771c-0.596-0.325-3.842-2.096-8.013-4.371l-5.736,5.78L45.707,46.937z"/>
	<linearGradient id="SVGID_6_" gradientUnits="userSpaceOnUse" x1="45.6135" y1="40.933" x2="21.8138" y2="65.5783">
		<stop offset="0" style="stop-color:#E62F39"/>
		<stop offset="1" style="stop-color:#79469B"/>
	</linearGradient>
	<path fill-rule="evenodd" clip-rule="evenodd" fill="url(#SVGID_6_)" d="M39.966,41.192L21.62,59.678   c0.414,0.052,0.913-0.057,1.486-0.371c1.187-0.65,13.93-7.625,22.602-12.371L39.966,41.192z"/>
	<linearGradient id="SVGID_7_" gradientUnits="userSpaceOnUse" x1="44.9804" y1="41.3376" x2="22.4508" y2="17.1775">
		<stop offset="0" style="stop-color:#E5EBA6"/>
		<stop offset="1" style="stop-color:#3BBCBA"/>
	</linearGradient>
	<path fill-rule="evenodd" clip-rule="evenodd" fill="url(#SVGID_7_)" d="M39.966,41.192l5.736-5.78c0,0-21.32-11.632-22.596-12.328   c-0.491-0.268-1.118-0.318-1.592-0.212L39.966,41.192z"/>
	<linearGradient id="SVGID_8_" gradientUnits="userSpaceOnUse" x1="30.0556" y1="75.4883" x2="30.0556" y2="7.0935">
		<stop offset="0" style="stop-color:#8DD1CD"/>
		<stop offset="1" style="stop-color:#06708D"/>
	</linearGradient>
	<path fill-rule="evenodd" clip-rule="evenodd" fill="url(#SVGID_8_)" d="M39.966,41.192l-18.452-18.32   c-0.758,0.173-1.376,0.832-1.369,2.151c0.011,2.143,0.155,30.702,0.164,32.501c0.006,1.242,0.5,2.114,1.404,2.196L39.966,41.192z"/>
</g>
</svg>